<?xml version="1.0" encoding="utf-8" ?>
<svg baseProfile="full" height="100" version="1.1" width="100" xmlns="http://www.w3.org/2000/svg" xmlns:ev="http://www.w3.org/2001/xml-events" xmlns:xlink="http://www.w3.org/1999/xlink"><defs /><path d="M 68.7,11.7 L 70.4,17.7 L 69.6,18.5 L 66.2,16.0 L 65.3,12.6 L 64.5,15.1 L 66.2,18.5 L 72.1,21.9 L 74.7,25.3 L 73.0,26.2 L 69.6,24.5 L 72.1,30.4 L 64.5,38.9 L 59.4,38.9 L 56.0,37.2 L 23.6,37.2 L 13.4,42.3 L 11.7,44.9 L 12.6,57.7 L 13.4,53.4 L 15.1,53.4 L 16.0,61.1 L 10.9,66.2 L 10.0,83.2 L 11.7,87.4 L 15.1,87.4 L 12.6,82.3 L 13.4,72.1 L 17.7,67.0 L 24.5,82.3 L 27.9,86.6 L 31.3,85.7 L 23.6,73.8 L 23.6,68.7 L 30.4,58.5 L 33.8,60.2 L 50.9,59.4 L 52.6,61.1 L 51.7,76.4 L 50.0,80.6 L 51.7,85.7 L 56.0,85.7 L 53.4,82.3 L 53.4,74.7 L 56.0,66.2 L 58.5,75.5 L 58.5,83.2 L 60.2,87.4 L 64.5,87.4 L 60.2,79.8 L 60.2,60.2 L 63.6,58.5 L 74.7,47.4 L 78.9,39.8 L 89.1,38.9 L 89.1,36.4 L 80.6,27.0 L 79.8,22.8 L 74.7,19.4 Z" fill="#333333" /></svg>