<?xml version="1.0" encoding="utf-8" ?>
<svg baseProfile="full" height="100" version="1.1" width="100" xmlns="http://www.w3.org/2000/svg" xmlns:ev="http://www.w3.org/2001/xml-events" xmlns:xlink="http://www.w3.org/1999/xlink"><defs /><path d="M 10.0,57.2 L 10.7,57.9 L 17.9,57.9 L 18.6,57.2 L 22.3,57.2 L 23.7,58.6 L 25.9,59.4 L 27.3,60.8 L 28.0,63.0 L 32.3,63.7 L 33.8,65.1 L 34.5,64.4 L 35.9,65.1 L 38.1,64.4 L 38.1,63.0 L 36.7,61.5 L 37.4,60.8 L 54.0,60.8 L 58.3,63.0 L 64.8,63.0 L 67.7,64.4 L 70.5,64.4 L 71.3,65.1 L 72.7,64.4 L 74.1,65.1 L 74.9,64.4 L 75.6,65.1 L 76.3,64.4 L 75.6,63.0 L 71.3,60.1 L 74.9,57.9 L 85.7,57.9 L 86.4,58.6 L 89.3,58.6 L 89.3,55.8 L 88.6,55.8 L 85.0,52.2 L 82.1,46.4 L 77.7,42.1 L 75.6,41.4 L 74.1,39.9 L 72.0,39.9 L 68.4,38.5 L 61.2,37.7 L 56.8,35.6 L 54.7,35.6 L 51.8,34.1 L 38.8,34.1 L 38.1,34.9 L 35.9,34.9 L 35.2,35.6 L 31.6,36.3 L 30.2,37.7 L 28.7,37.7 L 26.6,39.2 L 20.8,45.7 L 20.1,49.3 L 19.4,50.0 L 19.4,52.9 L 20.1,54.3 L 16.5,56.5 Z" fill="#333333" /></svg>