<?xml version="1.0" encoding="utf-8" ?>
<svg baseProfile="full" height="100" version="1.1" width="100" xmlns="http://www.w3.org/2000/svg" xmlns:ev="http://www.w3.org/2001/xml-events" xmlns:xlink="http://www.w3.org/1999/xlink"><defs /><path d="M 89.3,38.5 L 82.8,31.3 L 82.8,27.4 L 76.2,25.4 L 75.6,26.7 L 67.7,28.0 L 65.7,30.0 L 61.8,31.3 L 60.5,33.3 L 54.6,37.2 L 30.3,37.2 L 25.1,40.5 L 23.1,43.8 L 21.1,58.9 L 16.6,62.8 L 12.6,61.5 L 10.0,63.4 L 11.3,64.8 L 15.2,64.8 L 20.5,62.1 L 21.8,63.4 L 22.5,72.0 L 24.4,73.3 L 28.4,72.6 L 28.4,70.7 L 25.7,69.3 L 25.7,65.4 L 32.3,58.9 L 33.6,61.5 L 32.3,65.4 L 38.2,72.6 L 43.4,72.6 L 44.1,70.7 L 42.1,69.3 L 40.8,70.0 L 37.5,65.4 L 40.8,54.9 L 42.8,54.3 L 48.0,56.9 L 56.6,57.5 L 57.2,58.9 L 59.2,58.9 L 59.2,67.4 L 60.5,72.0 L 67.0,72.0 L 67.0,70.7 L 63.8,68.7 L 63.8,66.1 L 65.7,62.1 L 73.6,73.9 L 78.2,73.9 L 79.5,72.0 L 78.9,70.7 L 74.9,69.3 L 71.6,59.5 L 74.9,56.9 L 76.2,53.0 L 81.5,47.7 L 82.1,45.1 L 86.7,44.4 Z" fill="#333333" /></svg>