<?xml version="1.0" encoding="utf-8" ?>
<svg baseProfile="full" height="100" version="1.1" width="100" xmlns="http://www.w3.org/2000/svg" xmlns:ev="http://www.w3.org/2001/xml-events" xmlns:xlink="http://www.w3.org/1999/xlink"><defs /><path d="M 10.0,62.4 L 12.3,62.4 L 15.2,60.6 L 20.9,54.9 L 24.4,54.9 L 28.4,53.2 L 31.3,53.2 L 31.9,52.6 L 57.8,53.7 L 58.3,54.3 L 57.2,56.0 L 54.3,58.3 L 54.3,59.5 L 56.6,59.5 L 60.6,57.8 L 65.3,53.7 L 72.2,53.2 L 74.5,52.0 L 76.2,52.0 L 81.4,50.3 L 86.5,49.7 L 88.8,48.6 L 89.4,46.8 L 88.3,45.1 L 79.1,42.2 L 75.6,40.5 L 71.0,40.5 L 68.7,39.4 L 62.4,38.8 L 61.8,38.2 L 46.3,38.2 L 45.7,38.8 L 43.4,38.8 L 37.1,37.1 L 36.5,37.6 L 37.6,38.8 L 36.5,40.5 L 25.5,45.7 L 21.5,48.6 L 18.6,52.0 L 12.9,51.4 L 12.3,52.0 L 13.5,53.7 L 13.5,55.5 L 12.3,57.2 L 11.7,60.1 Z" fill="#333333" /></svg>