<?xml version="1.0" encoding="utf-8" ?>
<svg baseProfile="full" height="100" version="1.1" width="100" xmlns="http://www.w3.org/2000/svg" xmlns:ev="http://www.w3.org/2001/xml-events" xmlns:xlink="http://www.w3.org/1999/xlink"><defs /><path d="M 10.0,39.2 L 13.6,39.9 L 16.5,42.8 L 17.9,45.7 L 20.8,45.7 L 25.1,47.8 L 28.0,50.7 L 30.2,54.3 L 31.6,53.6 L 35.2,53.6 L 39.5,55.8 L 43.2,59.4 L 42.4,61.5 L 43.2,62.3 L 43.9,60.8 L 49.6,65.9 L 54.7,61.5 L 56.1,62.3 L 56.8,61.5 L 56.1,59.4 L 59.7,55.8 L 64.1,53.6 L 68.4,53.6 L 69.1,54.3 L 70.5,51.4 L 74.9,47.1 L 76.3,47.1 L 78.5,45.7 L 81.4,45.7 L 82.1,45.0 L 82.1,43.5 L 85.7,39.9 L 89.3,39.2 L 89.3,38.5 L 84.2,34.9 L 82.1,34.9 L 78.5,33.4 L 72.7,33.4 L 72.0,34.1 L 69.1,34.1 L 68.4,34.9 L 66.9,34.9 L 66.2,33.4 L 62.6,38.5 L 55.4,45.7 L 54.0,45.7 L 53.2,45.0 L 54.0,43.5 L 54.0,42.1 L 53.2,41.4 L 50.4,43.5 L 48.9,43.5 L 46.8,41.4 L 45.3,41.4 L 45.3,44.2 L 46.0,45.0 L 45.3,45.7 L 42.4,45.0 L 35.9,37.7 L 33.1,33.4 L 32.3,34.9 L 27.3,34.1 L 26.6,33.4 L 20.8,33.4 L 20.1,34.1 L 17.9,34.1 L 17.2,34.9 L 13.6,35.6 L 11.4,37.0 Z" fill="#333333" /></svg>