<?xml version="1.0" encoding="utf-8" ?>
<svg baseProfile="full" height="100" version="1.1" width="100" xmlns="http://www.w3.org/2000/svg" xmlns:ev="http://www.w3.org/2001/xml-events" xmlns:xlink="http://www.w3.org/1999/xlink"><defs /><path d="M 89.4,60.2 L 86.4,51.8 L 82.8,46.4 L 84.6,44.0 L 84.6,40.4 L 81.6,43.4 L 79.2,39.8 L 77.4,43.4 L 73.2,39.2 L 68.3,36.2 L 55.7,33.2 L 49.7,34.4 L 49.1,33.8 L 38.3,39.2 L 34.1,43.4 L 31.7,50.0 L 24.4,56.6 L 17.2,58.4 L 13.0,58.4 L 10.0,59.6 L 24.4,60.2 L 36.5,54.2 L 37.1,54.8 L 36.5,56.6 L 37.1,60.8 L 38.3,62.6 L 40.1,63.2 L 43.7,62.6 L 45.5,64.4 L 49.7,65.6 L 52.7,64.4 L 52.1,63.2 L 47.3,60.2 L 48.5,57.8 L 58.1,56.6 L 62.3,57.8 L 67.7,65.0 L 69.5,66.2 L 75.0,65.6 L 74.4,64.4 L 70.8,62.6 L 70.2,61.4 L 70.8,59.6 L 74.4,63.2 L 80.4,63.2 L 79.8,62.0 L 76.8,60.8 L 74.4,57.8 L 78.0,55.4 L 87.0,60.8 Z" fill="#333333" /></svg>