<?xml version="1.0" encoding="utf-8" ?>
<svg baseProfile="full" height="100" version="1.1" width="100" xmlns="http://www.w3.org/2000/svg" xmlns:ev="http://www.w3.org/2001/xml-events" xmlns:xlink="http://www.w3.org/1999/xlink"><defs /><path d="M 89.3,42.6 L 79.4,33.4 L 79.4,30.5 L 77.3,31.9 L 73.7,31.9 L 72.3,30.5 L 70.9,30.5 L 68.1,34.1 L 60.3,34.1 L 53.9,31.2 L 46.1,31.2 L 41.2,32.7 L 34.1,36.9 L 29.1,41.9 L 26.3,46.1 L 26.3,47.5 L 22.7,51.1 L 18.5,52.5 L 12.1,49.6 L 10.0,51.8 L 11.4,52.5 L 11.4,53.9 L 15.0,56.0 L 21.3,56.7 L 26.3,55.3 L 31.2,50.4 L 32.7,55.3 L 29.8,58.8 L 30.5,65.9 L 31.9,67.3 L 36.2,66.6 L 33.4,63.8 L 33.4,61.7 L 39.7,57.4 L 41.2,58.1 L 40.4,61.0 L 42.6,63.1 L 45.4,64.5 L 50.4,64.5 L 51.1,63.8 L 50.4,63.1 L 46.1,62.4 L 44.7,60.3 L 50.4,52.5 L 52.5,52.5 L 55.3,55.3 L 58.1,67.3 L 59.6,68.8 L 63.8,68.8 L 63.8,67.3 L 60.3,65.2 L 60.3,59.6 L 61.7,56.0 L 63.1,54.6 L 71.6,64.5 L 78.0,65.2 L 76.5,63.1 L 74.4,63.1 L 73.0,61.7 L 70.2,55.3 L 70.2,52.5 L 75.8,48.2 L 86.5,46.1 Z" fill="#333333" /></svg>