<?xml version="1.0" encoding="utf-8" ?>
<svg baseProfile="full" height="100" version="1.1" width="100" xmlns="http://www.w3.org/2000/svg" xmlns:ev="http://www.w3.org/2001/xml-events" xmlns:xlink="http://www.w3.org/1999/xlink"><defs /><path d="M 89.2,33.8 L 81.9,29.0 L 77.9,27.4 L 75.5,28.2 L 72.2,27.4 L 70.6,29.8 L 69.0,29.8 L 67.4,31.4 L 60.9,32.2 L 60.1,33.0 L 52.8,33.0 L 52.0,32.2 L 47.2,31.4 L 45.6,29.8 L 40.7,28.2 L 39.9,29.0 L 36.7,29.0 L 32.6,30.6 L 29.4,30.6 L 27.8,28.2 L 23.7,28.2 L 22.9,31.4 L 25.4,32.2 L 28.6,37.1 L 28.6,39.5 L 29.4,40.3 L 28.6,46.0 L 25.4,50.0 L 25.4,52.4 L 22.1,55.7 L 20.5,55.7 L 13.2,60.5 L 10.0,65.4 L 10.0,70.2 L 14.0,71.8 L 19.7,71.8 L 20.5,71.0 L 25.4,70.2 L 35.1,65.4 L 42.3,65.4 L 46.4,68.6 L 47.2,71.8 L 49.6,71.8 L 50.4,71.0 L 50.4,66.2 L 56.9,60.5 L 63.3,59.7 L 64.1,60.5 L 69.8,61.3 L 73.0,63.7 L 74.6,63.7 L 76.3,61.3 L 75.5,59.7 L 73.0,58.1 L 73.0,55.7 L 72.2,54.8 L 72.2,50.0 L 73.8,45.2 L 80.3,38.7 L 87.6,36.3 Z" fill="#333333" /></svg>