<?xml version="1.0" encoding="utf-8" ?>
<svg baseProfile="full" height="100" version="1.1" width="100" xmlns="http://www.w3.org/2000/svg" xmlns:ev="http://www.w3.org/2001/xml-events" xmlns:xlink="http://www.w3.org/1999/xlink"><defs /><path d="M 89.4,48.7 L 86.1,51.3 L 84.2,49.4 L 83.5,46.8 L 85.5,46.1 L 84.8,44.8 L 83.5,46.8 L 80.3,41.6 L 81.6,40.3 L 81.6,37.1 L 80.3,37.1 L 78.4,39.0 L 76.5,37.7 L 71.9,37.1 L 65.5,37.7 L 59.7,33.9 L 58.4,34.5 L 53.9,32.6 L 45.5,33.2 L 44.2,34.5 L 37.7,36.5 L 25.5,50.6 L 15.8,53.2 L 12.6,55.2 L 10.0,59.0 L 10.0,62.9 L 13.9,66.8 L 19.0,66.8 L 12.6,64.2 L 11.9,62.9 L 12.6,58.4 L 17.1,55.2 L 28.7,52.6 L 31.3,53.2 L 38.4,57.7 L 42.9,65.5 L 44.8,66.1 L 47.4,65.5 L 46.8,64.2 L 48.1,63.5 L 46.8,62.9 L 47.4,62.3 L 53.2,62.3 L 52.6,61.0 L 50.0,61.0 L 48.7,59.0 L 51.3,57.1 L 53.9,57.7 L 54.5,57.1 L 61.6,63.5 L 61.6,65.5 L 66.1,66.1 L 68.1,64.8 L 67.4,63.5 L 65.5,63.5 L 63.5,61.0 L 64.2,59.0 L 66.8,60.3 L 68.7,62.9 L 73.2,63.5 L 74.5,62.9 L 73.9,61.0 L 71.3,61.6 L 69.4,59.0 L 70.0,55.8 L 72.6,54.5 L 75.8,54.5 L 79.7,56.5 L 78.4,57.7 L 79.7,56.5 L 80.3,57.1 L 79.7,58.4 L 81.6,55.8 L 82.9,56.5 L 82.3,57.7 L 82.9,56.5 L 83.5,57.1 L 84.2,55.8 L 88.1,54.5 L 88.1,53.2 L 86.1,51.3 Z" fill="#333333" /></svg>