<?xml version="1.0" encoding="utf-8" ?>
<svg baseProfile="full" height="100" version="1.1" width="100" xmlns="http://www.w3.org/2000/svg" xmlns:ev="http://www.w3.org/2001/xml-events" xmlns:xlink="http://www.w3.org/1999/xlink"><defs /><path d="M 84.0,24.7 L 80.4,27.7 L 76.8,24.7 L 75.6,25.3 L 75.6,28.9 L 77.4,31.4 L 75.0,36.2 L 73.2,37.4 L 57.5,35.6 L 53.9,36.2 L 46.7,39.8 L 41.3,47.6 L 38.3,62.6 L 34.1,68.6 L 31.1,69.8 L 17.8,70.5 L 10.0,72.9 L 35.3,72.9 L 41.3,68.0 L 44.9,60.8 L 46.1,60.2 L 47.9,62.0 L 50.3,62.0 L 51.5,60.8 L 53.9,62.0 L 53.3,73.5 L 65.3,74.7 L 72.6,74.1 L 70.2,72.3 L 73.8,71.7 L 72.6,69.8 L 61.7,69.2 L 60.5,68.0 L 61.1,59.0 L 63.5,55.4 L 69.5,52.4 L 72.6,57.8 L 72.6,59.6 L 71.4,60.2 L 70.8,62.6 L 72.6,63.2 L 76.2,61.4 L 77.4,59.0 L 76.2,49.4 L 79.8,45.8 L 81.0,40.4 L 82.2,39.2 L 88.2,39.8 L 89.4,38.6 L 89.4,37.4 L 85.2,32.0 L 82.8,30.8 Z" fill="#333333" /></svg>