<?xml version="1.0" encoding="utf-8" ?>
<svg baseProfile="full" height="100" version="1.1" width="100" xmlns="http://www.w3.org/2000/svg" xmlns:ev="http://www.w3.org/2001/xml-events" xmlns:xlink="http://www.w3.org/1999/xlink"><defs /><path d="M 10.0,48.2 L 11.8,49.1 L 10.0,50.9 L 10.9,51.8 L 10.0,52.8 L 10.9,54.6 L 10.0,56.4 L 11.8,59.2 L 10.9,61.0 L 11.8,62.9 L 13.7,63.8 L 12.8,64.7 L 15.5,68.4 L 17.4,69.3 L 18.3,68.4 L 25.6,73.0 L 29.3,73.0 L 30.2,72.1 L 29.3,70.2 L 30.2,69.3 L 36.7,71.1 L 37.6,70.2 L 39.4,70.2 L 40.3,68.4 L 44.0,68.4 L 44.9,69.3 L 45.9,68.4 L 46.8,69.3 L 51.4,68.4 L 53.2,71.1 L 56.9,73.9 L 61.5,73.9 L 63.3,70.2 L 65.2,71.1 L 69.8,71.1 L 70.7,70.2 L 69.8,68.4 L 67.0,67.5 L 65.2,65.6 L 66.1,64.7 L 67.9,64.7 L 68.9,63.8 L 76.2,63.8 L 77.1,62.9 L 82.6,63.8 L 83.6,62.9 L 88.2,62.9 L 89.1,60.1 L 86.3,58.3 L 82.6,53.7 L 82.6,50.9 L 80.8,47.2 L 84.5,41.7 L 79.9,36.2 L 79.0,37.1 L 78.0,35.3 L 76.2,34.4 L 75.3,35.3 L 74.4,33.4 L 72.5,33.4 L 71.6,32.5 L 70.7,33.4 L 69.8,31.6 L 68.9,32.5 L 66.1,29.8 L 65.2,30.7 L 63.3,27.9 L 62.4,29.8 L 61.5,27.9 L 59.7,28.9 L 56.0,26.1 L 52.3,26.1 L 51.4,25.2 L 50.5,27.0 L 48.6,25.2 L 46.8,26.1 L 44.9,25.2 L 41.3,25.2 L 40.3,26.1 L 38.5,25.2 L 36.7,26.1 L 33.9,25.2 L 34.8,26.1 L 33.9,27.0 L 31.1,26.1 L 30.2,27.9 L 29.3,27.0 L 27.5,27.0 L 29.3,28.9 L 28.4,29.8 L 23.8,29.8 L 24.7,30.7 L 23.8,31.6 L 19.2,32.5 L 20.1,33.4 L 19.2,34.4 L 17.4,34.4 L 18.3,35.3 L 17.4,36.2 L 15.5,36.2 L 16.4,37.1 L 13.7,39.0 L 14.6,39.9 L 12.8,40.8 L 12.8,42.6 L 10.9,45.4 L 11.8,46.3 Z" fill="#333333" /></svg>