<?xml version="1.0" encoding="utf-8" ?>
<svg baseProfile="full" height="100" version="1.1" width="100" xmlns="http://www.w3.org/2000/svg" xmlns:ev="http://www.w3.org/2001/xml-events" xmlns:xlink="http://www.w3.org/1999/xlink"><defs /><path d="M 89.2,38.3 L 81.7,31.7 L 77.5,29.2 L 75.8,29.2 L 73.3,26.7 L 70.8,28.3 L 65.0,28.3 L 64.2,30.0 L 62.5,30.0 L 59.2,32.5 L 54.2,31.7 L 52.5,30.0 L 50.8,30.8 L 50.0,30.0 L 47.5,30.0 L 43.3,28.3 L 30.8,28.3 L 30.0,29.2 L 24.2,30.0 L 20.8,31.7 L 15.8,36.7 L 12.5,41.7 L 10.0,48.3 L 11.7,51.7 L 11.7,54.2 L 18.3,60.0 L 18.3,62.5 L 16.7,64.2 L 15.8,66.7 L 19.2,70.0 L 22.5,71.7 L 27.5,72.5 L 30.0,70.8 L 30.0,70.0 L 28.3,69.2 L 29.2,68.3 L 35.0,68.3 L 35.8,67.5 L 35.8,66.7 L 34.2,65.8 L 30.0,65.8 L 29.2,65.0 L 32.5,60.0 L 36.7,60.0 L 37.5,60.8 L 40.0,60.8 L 40.8,60.0 L 48.3,60.0 L 54.2,67.5 L 54.2,70.0 L 57.5,72.5 L 61.7,72.5 L 63.3,71.7 L 62.5,70.0 L 63.3,69.2 L 67.5,69.2 L 67.5,67.5 L 65.0,66.7 L 63.3,65.0 L 63.3,60.0 L 70.8,53.3 L 73.3,52.5 L 74.2,50.0 L 79.2,45.8 L 80.8,45.8 L 86.7,43.3 L 88.3,41.7 Z" fill="#333333" /></svg>