<?xml version="1.0" encoding="utf-8" ?>
<svg baseProfile="full" height="100" version="1.1" width="100" xmlns="http://www.w3.org/2000/svg" xmlns:ev="http://www.w3.org/2001/xml-events" xmlns:xlink="http://www.w3.org/1999/xlink"><defs /><path d="M 68.1,12.2 L 64.8,11.1 L 62.6,14.4 L 59.3,12.2 L 57.1,12.2 L 56.0,14.4 L 57.1,25.3 L 63.7,35.2 L 62.6,36.3 L 62.6,41.8 L 59.3,44.0 L 56.0,44.0 L 50.5,41.8 L 38.5,41.8 L 37.4,42.9 L 31.9,44.0 L 26.4,47.3 L 17.7,57.1 L 17.7,59.3 L 15.5,62.6 L 15.5,70.3 L 14.4,71.4 L 13.3,70.3 L 10.0,71.4 L 10.0,77.9 L 13.3,81.2 L 17.7,83.4 L 24.2,83.4 L 25.3,85.6 L 27.5,86.7 L 48.4,87.8 L 49.5,86.7 L 51.6,86.7 L 52.7,84.5 L 49.5,81.2 L 47.3,81.2 L 46.2,80.1 L 52.7,76.8 L 58.2,76.8 L 63.7,85.6 L 65.9,86.7 L 73.6,86.7 L 74.7,85.6 L 73.6,82.3 L 69.2,80.1 L 68.1,77.9 L 68.1,73.6 L 75.8,67.0 L 79.0,59.3 L 79.0,53.8 L 81.2,51.6 L 85.6,50.5 L 87.8,48.4 L 88.9,45.1 L 82.3,35.2 L 79.0,33.0 L 74.7,31.9 L 72.5,29.7 L 71.4,17.7 Z" fill="#333333" /></svg>