<?xml version="1.0" encoding="utf-8" ?>
<svg baseProfile="full" height="100" version="1.1" width="100" xmlns="http://www.w3.org/2000/svg" xmlns:ev="http://www.w3.org/2001/xml-events" xmlns:xlink="http://www.w3.org/1999/xlink"><defs /><path d="M 89.3,46.5 L 87.2,47.9 L 86.5,47.2 L 86.5,42.9 L 84.3,47.2 L 80.1,40.8 L 75.1,36.5 L 74.4,33.0 L 71.6,30.2 L 70.2,30.2 L 69.5,34.4 L 65.2,30.9 L 63.1,30.9 L 60.3,34.4 L 56.0,33.0 L 48.9,33.0 L 42.6,35.8 L 36.9,40.8 L 34.1,49.3 L 30.5,52.8 L 26.3,55.0 L 21.3,55.0 L 13.5,57.1 L 10.7,59.9 L 10.0,63.5 L 16.4,67.7 L 34.8,69.1 L 15.7,65.6 L 12.1,62.7 L 12.1,61.3 L 15.7,58.5 L 27.7,57.1 L 35.5,52.8 L 39.0,56.4 L 38.3,60.6 L 44.0,67.7 L 51.1,67.7 L 48.2,65.6 L 44.7,65.6 L 41.2,60.6 L 41.9,58.5 L 43.3,58.5 L 48.2,63.5 L 56.0,64.2 L 56.0,62.7 L 49.6,62.0 L 48.2,60.6 L 57.4,59.2 L 61.0,60.6 L 65.9,67.0 L 71.6,67.7 L 72.3,66.3 L 68.1,65.6 L 64.5,60.6 L 66.6,59.9 L 69.5,64.2 L 75.8,64.2 L 70.9,62.7 L 68.8,58.5 L 78.7,53.5 L 79.4,54.2 L 75.8,58.5 L 79.4,55.0 L 80.1,55.7 L 78.0,59.2 L 81.5,54.2 L 81.5,57.1 L 84.3,53.5 L 87.9,52.1 L 86.5,48.6 Z" fill="#333333" /></svg>