<?xml version="1.0" encoding="utf-8" ?>
<svg baseProfile="full" height="100" version="1.1" width="100" xmlns="http://www.w3.org/2000/svg" xmlns:ev="http://www.w3.org/2001/xml-events" xmlns:xlink="http://www.w3.org/1999/xlink"><defs /><path d="M 82.9,25.6 L 81.1,23.8 L 79.3,26.4 L 74.0,26.4 L 70.4,24.7 L 67.8,27.3 L 65.1,27.3 L 58.9,23.8 L 52.7,22.0 L 47.3,22.0 L 40.2,24.7 L 32.2,31.8 L 28.7,41.6 L 25.1,45.1 L 17.1,48.7 L 12.7,53.1 L 10.0,60.2 L 12.7,70.0 L 17.1,74.4 L 23.3,77.1 L 31.3,77.1 L 35.8,75.3 L 39.3,71.8 L 41.1,65.6 L 40.2,62.9 L 35.8,59.3 L 33.1,59.3 L 29.6,62.0 L 30.4,66.4 L 31.3,66.4 L 31.3,63.8 L 34.0,62.0 L 37.6,65.6 L 36.7,69.1 L 31.3,73.6 L 23.3,73.6 L 18.9,70.9 L 15.3,66.4 L 14.4,60.2 L 16.2,55.8 L 19.8,52.2 L 31.3,47.8 L 36.7,50.4 L 39.3,50.4 L 49.1,61.1 L 53.6,59.3 L 50.9,53.1 L 47.3,52.2 L 50.9,47.8 L 56.2,47.8 L 66.9,59.3 L 67.8,58.4 L 70.4,59.3 L 71.3,57.6 L 70.4,55.8 L 66.9,54.0 L 65.1,51.3 L 66.9,49.6 L 71.3,52.2 L 73.1,51.3 L 74.9,52.2 L 76.7,50.4 L 70.4,47.8 L 73.1,43.3 L 74.9,42.4 L 81.1,43.3 L 88.2,41.6 L 86.4,38.0 L 89.1,36.2 L 86.4,35.3 L 87.3,32.7 L 85.6,35.3 L 82.0,30.0 Z" fill="#333333" /></svg>