<?xml version="1.0" encoding="utf-8" ?>
<svg baseProfile="full" height="100" version="1.1" width="100" xmlns="http://www.w3.org/2000/svg" xmlns:ev="http://www.w3.org/2001/xml-events" xmlns:xlink="http://www.w3.org/1999/xlink"><defs /><path d="M 10.0,45.5 L 10.0,46.6 L 12.3,48.9 L 17.4,50.6 L 21.9,50.6 L 27.0,48.9 L 29.3,48.9 L 31.6,51.1 L 30.4,52.3 L 28.7,52.3 L 27.0,54.0 L 27.6,55.1 L 27.0,56.2 L 28.2,57.9 L 32.1,57.9 L 33.3,57.4 L 33.8,55.7 L 36.7,53.4 L 40.1,53.4 L 43.5,54.5 L 53.1,54.5 L 56.5,56.8 L 54.8,58.5 L 53.1,59.1 L 53.7,60.8 L 53.1,61.9 L 54.3,61.9 L 54.8,63.6 L 56.5,63.0 L 58.8,63.6 L 61.6,61.9 L 62.2,60.2 L 60.5,57.4 L 60.5,56.2 L 61.6,55.1 L 65.0,54.0 L 71.8,53.4 L 76.4,51.7 L 79.2,51.7 L 81.5,52.8 L 86.0,52.8 L 87.7,52.3 L 89.4,50.6 L 88.9,48.9 L 86.6,47.7 L 82.1,47.2 L 73.5,41.5 L 68.4,40.4 L 64.5,40.4 L 57.1,37.0 L 52.0,36.4 L 51.4,35.8 L 41.2,36.4 L 28.2,42.6 L 14.5,42.6 Z" fill="#333333" /></svg>