<?xml version="1.0" encoding="utf-8" ?>
<svg baseProfile="full" height="100" version="1.1" width="100" xmlns="http://www.w3.org/2000/svg" xmlns:ev="http://www.w3.org/2001/xml-events" xmlns:xlink="http://www.w3.org/1999/xlink"><defs /><path d="M 10.0,57.9 L 16.7,57.9 L 20.5,55.6 L 22.0,57.1 L 25.7,58.6 L 26.4,60.1 L 30.2,63.1 L 34.7,63.8 L 35.4,65.3 L 36.2,63.8 L 37.7,65.3 L 38.4,63.8 L 39.9,63.8 L 39.9,62.3 L 37.7,60.1 L 38.4,59.3 L 50.4,59.3 L 51.1,58.6 L 53.4,58.6 L 54.1,60.1 L 57.9,61.6 L 63.1,61.6 L 64.6,63.1 L 66.8,63.8 L 69.1,63.8 L 69.8,64.6 L 72.1,63.8 L 72.8,64.6 L 72.8,63.1 L 73.6,62.3 L 74.3,63.1 L 74.3,61.6 L 72.1,59.3 L 69.1,59.3 L 68.3,58.6 L 71.3,56.4 L 74.3,56.4 L 78.8,54.9 L 80.3,54.9 L 81.8,57.1 L 81.0,55.6 L 81.8,54.9 L 82.5,55.6 L 84.0,54.9 L 84.8,55.6 L 84.8,58.6 L 84.8,55.6 L 85.5,54.9 L 87.8,54.9 L 89.3,53.4 L 89.3,51.1 L 87.8,50.4 L 89.3,48.1 L 88.5,48.9 L 87.0,48.1 L 87.8,48.9 L 86.3,49.6 L 78.8,41.4 L 74.3,39.2 L 71.3,39.2 L 67.6,37.7 L 60.8,37.7 L 56.4,35.4 L 53.4,35.4 L 48.9,33.9 L 39.9,33.9 L 39.2,34.7 L 33.9,35.4 L 26.4,39.2 L 22.0,43.6 L 21.2,45.9 L 19.7,47.4 L 19.0,52.6 L 16.0,55.6 Z" fill="#333333" /></svg>