<?xml version="1.0" encoding="utf-8" ?>
<svg baseProfile="full" height="100" version="1.1" width="100" xmlns="http://www.w3.org/2000/svg" xmlns:ev="http://www.w3.org/2001/xml-events" xmlns:xlink="http://www.w3.org/1999/xlink"><defs /><path d="M 10.0,63.2 L 13.1,66.3 L 17.0,67.9 L 41.8,67.1 L 48.1,68.6 L 40.3,65.5 L 28.6,66.3 L 17.0,65.5 L 12.3,61.7 L 12.3,59.3 L 17.8,55.4 L 21.7,55.4 L 29.4,53.1 L 35.6,57.0 L 34.9,58.5 L 41.8,63.2 L 47.3,62.4 L 45.7,60.1 L 38.7,57.8 L 39.5,57.0 L 51.9,57.8 L 51.2,56.2 L 51.9,55.4 L 57.4,56.2 L 62.0,61.7 L 67.5,63.2 L 69.0,61.7 L 68.3,60.1 L 65.1,60.1 L 62.0,56.2 L 63.6,54.7 L 67.5,57.8 L 72.9,58.5 L 74.5,57.8 L 73.7,56.2 L 72.1,55.4 L 69.0,56.2 L 67.5,53.9 L 72.1,48.4 L 76.0,46.9 L 77.6,47.7 L 76.8,48.4 L 78.3,46.9 L 88.4,47.7 L 89.2,45.3 L 86.9,43.8 L 88.4,42.2 L 86.9,43.8 L 85.3,42.2 L 86.1,39.1 L 83.0,41.5 L 73.7,30.6 L 72.1,30.6 L 71.4,32.1 L 65.1,32.1 L 62.0,34.5 L 59.7,34.5 L 51.2,30.6 L 43.4,30.6 L 36.4,33.7 L 30.2,39.9 L 28.6,43.8 L 28.6,47.7 L 25.5,51.6 L 17.0,53.1 L 12.3,55.4 L 10.0,57.8 Z" fill="#333333" /></svg>