<?xml version="1.0" encoding="utf-8" ?>
<svg baseProfile="full" height="100" version="1.1" width="100" xmlns="http://www.w3.org/2000/svg" xmlns:ev="http://www.w3.org/2001/xml-events" xmlns:xlink="http://www.w3.org/1999/xlink"><defs /><path d="M 10.0,62.1 L 21.7,62.8 L 26.1,61.4 L 32.0,56.2 L 33.5,56.2 L 37.2,59.2 L 36.4,62.8 L 37.9,64.3 L 42.3,65.8 L 45.2,68.0 L 46.7,67.2 L 49.6,68.7 L 50.4,67.2 L 48.9,65.0 L 46.0,63.6 L 42.3,63.6 L 40.8,61.4 L 43.0,59.9 L 45.2,61.4 L 51.8,61.4 L 52.6,62.1 L 56.2,61.4 L 57.0,62.1 L 54.0,59.2 L 47.4,59.2 L 46.7,58.4 L 50.4,55.5 L 56.2,55.5 L 65.0,65.0 L 72.4,65.8 L 69.4,63.6 L 70.2,62.8 L 74.6,63.6 L 73.1,61.4 L 71.7,61.4 L 70.2,59.9 L 69.4,56.2 L 71.7,54.0 L 75.3,51.8 L 78.3,51.8 L 81.2,53.3 L 80.5,57.0 L 81.9,55.5 L 83.4,56.2 L 84.9,54.8 L 88.5,55.5 L 89.3,54.0 L 85.6,49.6 L 81.9,42.3 L 77.5,38.6 L 77.5,34.2 L 76.1,32.0 L 73.9,35.0 L 71.7,32.8 L 69.4,32.8 L 70.2,37.2 L 67.2,37.9 L 57.7,32.0 L 52.6,30.6 L 46.0,30.6 L 37.9,33.5 L 32.8,37.9 L 29.8,43.0 L 29.1,54.0 L 24.7,59.2 L 18.8,61.4 L 10.0,61.4 Z" fill="#333333" /></svg>