<?xml version="1.0" encoding="utf-8" ?>
<svg baseProfile="full" height="100" version="1.1" width="100" xmlns="http://www.w3.org/2000/svg" xmlns:ev="http://www.w3.org/2001/xml-events" xmlns:xlink="http://www.w3.org/1999/xlink"><defs /><path d="M 89.4,41.9 L 84.4,47.5 L 80.5,48.6 L 80.5,44.1 L 76.6,45.8 L 74.3,43.0 L 73.8,39.1 L 76.0,37.4 L 76.6,34.6 L 73.8,35.7 L 73.2,33.5 L 72.1,33.5 L 69.3,35.7 L 63.7,30.7 L 58.1,31.3 L 52.5,30.1 L 46.4,32.4 L 38.5,32.4 L 31.8,30.7 L 26.8,32.4 L 18.4,32.9 L 13.4,37.4 L 10.6,44.1 L 10.0,54.2 L 10.6,55.3 L 11.7,53.6 L 11.7,50.3 L 13.4,53.6 L 13.4,57.0 L 11.7,59.8 L 11.7,62.0 L 13.9,64.8 L 12.8,68.2 L 14.5,69.3 L 20.1,68.7 L 17.8,65.4 L 17.8,59.8 L 19.5,56.4 L 20.1,62.0 L 23.4,65.4 L 23.4,67.6 L 29.6,68.2 L 30.1,67.1 L 25.7,61.5 L 25.7,54.8 L 27.3,53.6 L 31.8,56.4 L 34.6,57.0 L 47.5,56.4 L 47.5,64.3 L 45.8,67.1 L 46.9,68.2 L 52.0,68.2 L 53.1,69.3 L 59.2,69.3 L 59.8,68.2 L 57.0,65.4 L 57.0,60.3 L 59.8,53.6 L 65.9,52.0 L 71.5,57.0 L 76.6,59.2 L 79.4,58.7 L 88.3,46.9 Z" fill="#333333" /></svg>