<?xml version="1.0" encoding="utf-8" ?>
<svg baseProfile="full" height="100" version="1.1" width="100" xmlns="http://www.w3.org/2000/svg" xmlns:ev="http://www.w3.org/2001/xml-events" xmlns:xlink="http://www.w3.org/1999/xlink"><defs /><path d="M 89.4,57.8 L 85.7,50.9 L 71.4,39.1 L 65.2,36.0 L 55.3,35.4 L 54.7,36.0 L 51.6,36.0 L 50.3,37.3 L 47.2,37.9 L 39.1,43.5 L 38.5,44.7 L 33.6,48.4 L 28.6,50.3 L 19.9,51.6 L 14.3,53.4 L 11.9,55.3 L 10.0,59.0 L 11.9,59.0 L 14.3,57.1 L 17.4,57.1 L 18.1,56.5 L 19.9,57.1 L 32.3,57.1 L 34.2,55.9 L 35.4,56.5 L 38.5,55.3 L 39.8,54.0 L 43.5,54.0 L 44.7,55.3 L 43.5,61.5 L 46.6,64.0 L 50.3,64.0 L 50.9,62.1 L 49.7,60.2 L 52.2,57.1 L 53.4,57.8 L 53.4,59.6 L 55.3,61.5 L 59.0,62.1 L 60.9,61.5 L 60.9,60.2 L 58.4,57.1 L 59.6,55.9 L 63.3,55.3 L 64.0,57.8 L 67.7,60.9 L 69.5,64.0 L 73.9,64.0 L 75.1,60.2 L 77.0,61.5 L 76.4,62.7 L 78.2,62.7 L 79.5,61.5 L 79.5,58.4 L 77.0,57.1 L 76.4,55.9 L 77.0,55.3 L 79.5,55.3 L 81.3,56.5 L 84.4,57.1 L 86.9,59.0 L 88.8,59.0 Z" fill="#333333" /></svg>