<?xml version="1.0" encoding="utf-8" ?>
<svg baseProfile="full" height="100" version="1.1" width="100" xmlns="http://www.w3.org/2000/svg" xmlns:ev="http://www.w3.org/2001/xml-events" xmlns:xlink="http://www.w3.org/1999/xlink"><defs /><path d="M 10.0,54.1 L 10.6,60.4 L 12.9,62.2 L 14.6,62.2 L 15.8,61.0 L 16.4,61.6 L 21.0,59.9 L 23.9,59.9 L 25.1,58.1 L 25.7,59.3 L 29.7,56.4 L 30.3,57.0 L 32.6,54.6 L 33.2,55.2 L 37.2,50.6 L 38.4,52.3 L 38.4,54.6 L 36.7,58.1 L 36.7,62.2 L 37.8,63.9 L 42.5,63.9 L 43.0,63.3 L 40.7,61.0 L 44.8,57.0 L 45.9,58.7 L 45.9,63.3 L 52.3,65.1 L 54.1,63.9 L 51.2,61.6 L 52.3,54.1 L 55.2,52.9 L 56.4,54.6 L 57.0,58.7 L 58.7,61.0 L 58.7,62.2 L 57.0,62.8 L 57.0,64.5 L 58.1,65.7 L 61.6,65.7 L 65.1,54.6 L 66.2,57.0 L 71.4,60.4 L 70.3,62.8 L 71.4,63.9 L 75.5,63.3 L 76.1,61.0 L 74.9,58.7 L 74.9,55.8 L 71.4,50.0 L 72.0,48.8 L 75.5,48.8 L 82.5,52.9 L 87.7,60.4 L 89.4,59.9 L 85.9,51.7 L 77.8,40.7 L 61.0,33.8 L 45.4,33.8 L 39.0,36.7 L 29.7,39.0 L 29.1,40.1 L 23.9,43.0 L 19.3,44.2 L 13.5,48.3 L 10.6,51.2 L 11.2,52.3 Z" fill="#333333" /></svg>