<?xml version="1.0" encoding="utf-8" ?>
<svg baseProfile="full" height="100" version="1.1" width="100" xmlns="http://www.w3.org/2000/svg" xmlns:ev="http://www.w3.org/2001/xml-events" xmlns:xlink="http://www.w3.org/1999/xlink"><defs /><path d="M 48.2,10.0 L 45.6,11.8 L 46.4,21.6 L 44.7,23.3 L 42.0,23.3 L 38.4,26.9 L 38.4,34.9 L 35.8,42.0 L 35.8,46.4 L 33.1,49.1 L 32.2,51.8 L 34.0,56.2 L 36.7,55.3 L 37.6,48.2 L 41.1,41.1 L 41.1,36.7 L 42.0,35.8 L 42.9,36.7 L 42.9,44.7 L 41.1,52.7 L 41.1,57.1 L 42.0,58.0 L 41.1,73.1 L 42.0,74.0 L 42.9,83.8 L 40.2,88.2 L 42.9,89.1 L 45.6,86.4 L 46.4,66.9 L 49.1,55.3 L 50.9,58.9 L 50.9,63.3 L 52.7,67.8 L 52.7,79.3 L 53.6,80.2 L 53.6,84.7 L 52.7,85.6 L 56.2,89.1 L 58.9,88.2 L 56.2,83.8 L 56.2,77.6 L 57.1,76.7 L 57.1,68.7 L 56.2,67.8 L 57.1,47.3 L 55.3,42.0 L 55.3,37.6 L 56.2,36.7 L 58.0,38.4 L 58.0,42.0 L 61.6,49.1 L 61.6,54.4 L 63.3,56.2 L 65.1,56.2 L 66.0,55.3 L 65.1,52.7 L 66.9,51.8 L 63.3,47.3 L 62.4,40.2 L 60.7,36.7 L 60.7,27.8 L 58.0,24.2 L 54.4,23.3 L 51.8,20.7 L 53.6,17.1 L 53.6,12.7 L 50.9,10.0 Z" fill="#333333" /></svg>