<?xml version="1.0" encoding="utf-8" ?>
<svg baseProfile="full" height="100" version="1.1" width="100" xmlns="http://www.w3.org/2000/svg" xmlns:ev="http://www.w3.org/2001/xml-events" xmlns:xlink="http://www.w3.org/1999/xlink"><defs /><path d="M 88.8,46.9 L 83.3,46.9 L 82.1,45.7 L 77.2,31.7 L 74.1,26.2 L 71.1,24.4 L 55.2,22.5 L 47.9,25.6 L 33.8,24.4 L 26.5,25.6 L 16.1,33.5 L 12.4,40.8 L 10.0,64.0 L 11.8,61.0 L 14.3,47.6 L 14.9,61.0 L 10.6,75.0 L 13.1,76.3 L 18.5,75.6 L 17.3,70.8 L 19.2,64.0 L 21.0,62.2 L 22.8,67.1 L 22.8,75.6 L 25.9,76.9 L 32.0,76.3 L 28.9,70.8 L 28.3,59.8 L 31.4,57.3 L 36.3,57.9 L 46.0,54.9 L 47.3,64.7 L 45.4,76.3 L 53.4,76.3 L 51.5,70.8 L 55.8,58.5 L 61.3,67.7 L 61.3,76.3 L 69.2,76.3 L 69.8,74.4 L 66.8,70.8 L 66.8,65.3 L 62.5,46.9 L 65.6,46.9 L 67.4,43.9 L 76.0,47.6 L 79.0,70.2 L 76.0,73.2 L 79.0,73.8 L 82.1,70.8 L 82.1,50.6 L 89.4,50.0 L 84.5,48.8 Z" fill="#333333" /></svg>