<?xml version="1.0" encoding="utf-8" ?>
<svg baseProfile="full" height="100" version="1.1" width="100" xmlns="http://www.w3.org/2000/svg" xmlns:ev="http://www.w3.org/2001/xml-events" xmlns:xlink="http://www.w3.org/1999/xlink"><defs /><path d="M 88.5,37.5 L 84.7,38.3 L 81.7,35.3 L 77.2,33.0 L 74.9,28.5 L 73.4,28.5 L 71.9,30.8 L 67.4,30.0 L 65.8,33.0 L 62.1,33.0 L 51.5,28.5 L 42.5,29.2 L 33.4,34.5 L 28.9,39.8 L 28.9,41.3 L 27.4,42.8 L 26.6,51.1 L 25.1,54.2 L 12.3,58.7 L 10.0,60.9 L 10.0,64.7 L 11.5,67.0 L 16.0,69.2 L 26.6,69.2 L 31.9,67.7 L 38.7,67.7 L 47.0,70.8 L 46.2,69.2 L 40.9,67.0 L 19.1,67.7 L 14.5,66.2 L 12.3,64.0 L 12.3,62.5 L 16.0,59.4 L 29.6,57.2 L 36.4,59.4 L 39.4,62.5 L 51.5,63.2 L 50.8,60.9 L 51.5,59.4 L 48.5,57.2 L 51.5,55.7 L 59.1,56.4 L 65.8,62.5 L 71.9,63.2 L 72.6,62.5 L 71.1,60.9 L 74.2,58.7 L 69.6,57.9 L 68.1,55.7 L 68.1,53.4 L 76.4,46.6 L 78.7,46.6 L 80.2,48.1 L 80.2,49.6 L 81.7,46.6 L 82.5,48.9 L 82.5,47.4 L 84.0,45.8 L 86.2,45.8 L 89.2,42.8 L 87.7,40.6 Z" fill="#333333" /></svg>