<?xml version="1.0" encoding="utf-8" ?>
<svg baseProfile="full" height="100" version="1.1" width="100" xmlns="http://www.w3.org/2000/svg" xmlns:ev="http://www.w3.org/2001/xml-events" xmlns:xlink="http://www.w3.org/1999/xlink"><defs /><path d="M 10.0,28.2 L 11.5,28.9 L 10.0,29.6 L 16.5,32.5 L 18.7,36.2 L 18.7,39.1 L 16.5,44.9 L 16.5,50.0 L 20.9,60.2 L 27.5,64.5 L 32.5,65.3 L 39.1,64.5 L 41.3,66.7 L 44.2,67.5 L 44.2,70.4 L 50.7,72.5 L 53.6,75.5 L 54.4,74.7 L 56.5,75.5 L 58.0,74.7 L 58.0,73.3 L 54.4,70.4 L 50.0,70.4 L 48.5,68.9 L 50.0,67.5 L 55.8,68.9 L 65.3,68.2 L 61.6,66.0 L 59.5,66.7 L 54.4,66.0 L 58.0,60.9 L 63.1,57.3 L 65.3,58.7 L 71.1,59.5 L 72.5,60.9 L 71.8,62.4 L 72.5,64.5 L 76.9,63.8 L 77.6,59.5 L 72.5,54.4 L 72.5,52.2 L 77.6,47.1 L 84.9,46.4 L 89.3,44.2 L 89.3,42.7 L 81.3,36.2 L 77.6,35.5 L 74.7,33.3 L 73.3,33.3 L 72.5,34.7 L 70.4,34.0 L 65.3,39.1 L 59.5,39.1 L 55.8,37.6 L 50.7,38.4 L 42.0,44.2 L 36.9,52.9 L 36.2,57.3 L 34.0,58.7 L 31.8,58.7 L 28.9,57.3 L 25.3,52.2 L 25.3,44.9 L 27.5,38.4 L 27.5,34.0 L 25.3,28.2 L 18.7,23.8 L 18.0,24.5 L 15.1,23.8 L 10.7,26.7 L 11.5,27.5 Z" fill="#333333" /></svg>