<?xml version="1.0" encoding="utf-8" ?>
<svg baseProfile="full" height="100" version="1.1" width="100" xmlns="http://www.w3.org/2000/svg" xmlns:ev="http://www.w3.org/2001/xml-events" xmlns:xlink="http://www.w3.org/1999/xlink"><defs /><path d="M 89.4,46.9 L 88.2,43.8 L 82.0,37.7 L 75.8,34.6 L 74.0,34.6 L 70.3,32.8 L 64.2,32.2 L 63.5,31.5 L 54.3,31.5 L 50.6,32.8 L 47.5,32.8 L 43.8,34.6 L 42.6,34.6 L 34.0,39.5 L 27.8,44.5 L 22.3,51.2 L 16.2,51.2 L 13.1,52.5 L 12.5,55.5 L 10.0,60.5 L 10.0,66.6 L 12.5,67.8 L 13.1,67.2 L 15.5,67.2 L 17.4,66.0 L 26.0,56.8 L 31.5,54.9 L 34.6,54.9 L 35.2,54.3 L 42.0,54.3 L 42.6,54.9 L 43.2,54.3 L 54.3,54.3 L 54.9,53.7 L 56.8,53.7 L 57.4,54.3 L 56.8,55.5 L 56.8,60.5 L 57.4,61.1 L 59.2,61.1 L 64.2,57.4 L 65.4,58.6 L 67.8,58.0 L 70.3,54.9 L 71.5,51.2 L 74.0,51.2 L 75.8,50.0 L 76.5,50.6 L 79.5,50.6 L 81.4,51.8 L 85.1,51.8 L 85.7,51.2 L 87.5,51.2 L 88.8,50.0 Z" fill="#333333" /></svg>