<?xml version="1.0" encoding="utf-8" ?>
<svg baseProfile="full" height="100" version="1.1" width="100" xmlns="http://www.w3.org/2000/svg" xmlns:ev="http://www.w3.org/2001/xml-events" xmlns:xlink="http://www.w3.org/1999/xlink"><defs /><path d="M 89.4,54.6 L 78.4,42.4 L 78.4,40.5 L 81.5,35.0 L 81.5,30.8 L 76.0,38.1 L 73.5,32.6 L 69.8,29.5 L 69.8,40.5 L 56.4,33.8 L 48.5,33.2 L 40.5,35.6 L 32.0,43.0 L 25.3,58.9 L 19.2,64.4 L 11.8,65.6 L 10.0,66.8 L 21.0,66.8 L 27.7,63.1 L 32.6,58.9 L 33.8,66.8 L 35.6,68.0 L 39.9,68.0 L 36.9,64.4 L 36.9,61.3 L 40.5,58.9 L 41.1,64.4 L 46.0,69.2 L 53.4,69.2 L 46.0,63.7 L 48.5,56.4 L 50.9,55.2 L 57.0,56.4 L 58.2,68.6 L 61.9,69.8 L 64.4,69.2 L 61.3,66.2 L 63.1,58.9 L 69.2,61.9 L 68.6,66.2 L 69.8,66.8 L 68.0,67.4 L 69.8,68.6 L 72.9,66.8 L 72.9,61.3 L 68.6,55.2 L 68.6,54.0 L 71.1,52.1 L 76.0,51.5 L 82.7,54.0 L 85.1,56.4 L 87.6,56.4 Z" fill="#333333" /></svg>